<?xml version="1.0" encoding="utf-8"?>
<!-- Generator: Adobe Illustrator 19.1.0, SVG Export Plug-In . SVG Version: 6.00 Build 0)  -->
<svg version="1.1" id="Layer_1" xmlns="http://www.w3.org/2000/svg" xmlns:xlink="http://www.w3.org/1999/xlink" x="0px" y="0px"
	 viewBox="0 0 103 100" enable-background="new 0 0 103 100" xml:space="preserve">
<path fill-rule="evenodd" clip-rule="evenodd" fill="#FFFFFF" d="M51.3,0C23,0,0,23,0,51.3c0,22.6,14.7,41.9,35.1,48.6
	c2.6,0.5,3.5-1.1,3.5-2.5c0-1.2,0-4.4-0.1-8.7c-14.3,3.1-17.3-6.9-17.3-6.9c-2.3-5.9-5.7-7.5-5.7-7.5c-4.7-3.2,0.4-3.1,0.4-3.1
	c5.1,0.4,7.9,5.3,7.9,5.3c4.6,7.8,12,5.6,14.9,4.3c0.5-3.3,1.8-5.6,3.3-6.9c-11.4-1.3-23.4-5.7-23.4-25.3c0-5.6,2-10.2,5.3-13.8
	c-0.5-1.3-2.3-6.5,0.5-13.6c0,0,4.3-1.4,14.1,5.3c4.1-1.1,8.5-1.7,12.8-1.7c4.4,0,8.7,0.6,12.8,1.7c9.8-6.6,14.1-5.3,14.1-5.3
	c2.8,7.1,1,12.3,0.5,13.6C82,38.4,84,43,84,48.6c0,19.7-12,24-23.4,25.3c1.8,1.6,3.5,4.7,3.5,9.5c0,6.9-0.1,12.4-0.1,14.1
	c0,1.4,0.9,3,3.5,2.5c20.4-6.8,35-26,35-48.6C102.5,23,79.6,0,51.3,0z"/>
</svg>
