<?xml version="1.0" encoding="utf-8"?>
<!-- Generator: Adobe Illustrator 19.1.0, SVG Export Plug-In . SVG Version: 6.00 Build 0)  -->
<svg version="1.1" id="Layer_1" xmlns="http://www.w3.org/2000/svg" xmlns:xlink="http://www.w3.org/1999/xlink" x="0px" y="0px"
	 viewBox="0 0 123 100" enable-background="new 0 0 123 100" xml:space="preserve">
<path fill="#FFFFFF" d="M123,11.8c-4.5,2-9.4,3.4-14.5,4c5.2-3.1,9.2-8.1,11.1-14c-4.9,2.9-10.3,5-16,6.1C99,3.1,92.5,0,85.2,0
	C71.2,0,59.9,11.3,59.9,25.2c0,2,0.2,3.9,0.7,5.8c-21-1.1-39.6-11.1-52-26.4c-2.2,3.7-3.4,8.1-3.4,12.7c0,8.8,4.5,16.5,11.2,21
	c-4.1-0.1-8-1.3-11.4-3.2c0,0.1,0,0.2,0,0.3c0,12.2,8.7,22.4,20.3,24.8c-2.1,0.6-4.3,0.9-6.7,0.9c-1.6,0-3.2-0.2-4.7-0.5
	C17,70.7,26.3,78,37.4,78.2C28.7,85,17.8,89,6,89c-2,0-4-0.1-6-0.4C11.2,95.8,24.4,100,38.7,100c46.4,0,71.8-38.5,71.8-71.8
	c0-1.1,0-2.2-0.1-3.3C115.4,21.3,119.7,16.9,123,11.8z"/>
</svg>
