<?xml version="1.0" encoding="utf-8"?>
<!-- Generator: Adobe Illustrator 19.1.0, SVG Export Plug-In . SVG Version: 6.00 Build 0)  -->
<svg version="1.1" id="Layer_1" xmlns="http://www.w3.org/2000/svg" xmlns:xlink="http://www.w3.org/1999/xlink" x="0px" y="0px"
	 viewBox="0 0 705 250" enable-background="new 0 0 705 250" xml:space="preserve">
<path fill="#990000" d="M399.7,160.2v6.6h-35.9v-6.6c0-1.6,0.8-2.5,2.3-2.8l8.8-1.8V11.3c-5-1.2-5.7-1.6-6.6-1.8
	c-1.4-0.5-2-1.2-2-2.8V4V0h22.3v155.5c5,1,7.9,1.6,8.8,1.8C398.9,157.7,399.7,158.6,399.7,160.2"/>
<path fill="#990000" d="M97.4,157.3c7.8,0,14.8-3.6,21.1-10.8V101c-0.8-0.2-3.8-0.8-8.7-1.8c-1.6-0.3-2.4-1.2-2.4-2.8V89h11.1h13.7
	v66.6c5,1,7.9,1.6,8.8,1.8c1.6,0.3,2.4,1.2,2.4,2.8v6.6H124c-1.9,0-3.2-0.9-3.7-2.8l-1.1-8.4c-7.5,8.3-16.1,12.5-25.8,12.5
	c-8.3,0-14.8-2.7-19.4-8.1c-4.4-5.1-6.6-12.3-6.6-21.4V101c-4.9-1-7.8-1.6-8.8-1.8c-1.5-0.3-2.3-1.2-2.3-2.8V89H81v49.7
	c0,5.9,1.4,10.5,4.1,13.7c2.7,3.2,6.8,4.8,12.2,4.8L97.4,157.3z"/>
<path fill="#111111" d="M55.7,180.9c1.1,0,1.7,0.7,1.6,1.8l-7.4,65.7c-0.1,1.1-0.7,1.6-1.8,1.6h-8.5c-1,0-1.6-0.5-1.9-1.6l-9-39.1
	l-9.1,39.1c-0.3,1-0.9,1.5-1.9,1.5H9.1c-1.1,0-1.7-0.5-1.8-1.6l-7.1-65.7c-0.1-1.1,0.5-1.8,1.6-1.8h8.2c1,0,1.7,0.6,1.8,1.6
	l3.4,40.4h0.4l8.6-40.5c0.3-1,0.9-1.6,1.9-1.6h5.2c1,0,1.6,0.5,1.9,1.6l8.5,40.5h0.4l3.5-40.4c0.1-1,0.8-1.6,1.8-1.6H55.7z"/>
<path fill="#111111" d="M100.4,190.9c0,0.9-0.3,1.5-1.4,1.5H77.5v17.3H94c0.9,0,1.4,0.5,1.4,1.5v8.6c0,1-0.5,1.5-1.4,1.5H77.5v17.5
	h21.6c1,0,1.4,0.4,1.4,1.4v8.6c0,0.9-0.3,1.4-1.4,1.4H67.3c-0.8,0-1.3-0.5-1.3-1.4v-66.4c0-0.9,0.5-1.4,1.3-1.4h31.8
	c1,0,1.4,0.5,1.4,1.4V190.9z"/>
<path fill="#111111" d="M143.7,209.2c0,3.2-2.3,5.6-5.4,6.1v0.2c3.1,0.5,5.4,2.9,5.4,6.1v15.9c0,8.1-4.4,12.4-12.5,12.4h-20.7
	c-0.9,0-1.4-0.5-1.4-1.4v-66.4c0-1,0.5-1.4,1.4-1.4h20.7c8.1,0,12.5,4.3,12.5,12.4V209.2z M132.2,195.7c0-2.2-1.1-3.5-3.5-3.5h-7.9
	v17.5h7.9c2.2,0,3.5-1.2,3.5-3.4V195.7z M132.2,224.6c0-2.2-1.1-3.5-3.5-3.5h-7.9v17.5h7.9c2.2,0,3.5-1.1,3.5-3.5V224.6z"/>
<path fill="#111111" d="M174,182.3c0-0.9,0.5-1.4,1.4-1.4h20.7c8.1,0,12.4,4.3,12.4,12.4v21.1c0,8-4.3,12.4-12.4,12.4h-10.4v21.8
	c0,0.9-0.4,1.4-1.4,1.4h-9c-0.9,0-1.4-0.5-1.4-1.4V182.3z M193.3,215.4c2.3,0,3.5-1.3,3.5-3.5v-16.2c0-2.2-1.1-3.5-3.5-3.5h-7.6
	v23.2H193.3z"/>
<path fill="#111111" d="M251.8,214.4c0,5.8-2.2,9.6-6.3,11.4l6,22.6c0.3,1-0.3,1.6-1.2,1.6h-9c-0.9,0-1.3-0.4-1.5-1.2l-5.8-21.9h-6
	v21.8c0,0.9-0.5,1.4-1.4,1.4h-9c-0.9,0-1.4-0.5-1.4-1.4v-66.4c0-0.9,0.5-1.4,1.4-1.4h21.7c8.1,0,12.4,4.3,12.4,12.4V214.4z
	 M236.6,215.4c2.2,0,3.5-1.2,3.5-3.5v-16.2c0-2.2-1.2-3.5-3.5-3.5h-8.6v23.2H236.6z"/>
<path fill="#111111" d="M258.7,193.3c0-8.1,4.3-12.4,12.4-12.4h9.7c8.1,0,12.4,4.3,12.4,12.4v44.2c0,8.1-4.3,12.4-12.4,12.4h-9.7
	c-8.1,0-12.4-4.3-12.4-12.4V193.3z M278.7,238.9c2.2,0,3.5-1.1,3.5-3.5v-39.9c0-2.2-1.2-3.5-3.5-3.5h-5c-2.2,0-3.5,1.2-3.5,3.5v39.9
	c0,2.3,1.2,3.5,3.5,3.5H278.7z"/>
<path fill="#111111" d="M336.5,190.9c0,0.9-0.5,1.4-1.4,1.4h-21.4v17.4h16.2c0.9,0,1.4,0.5,1.4,1.4v8.6c0,1-0.5,1.4-1.4,1.4h-16.2
	v27.6c0,0.9-0.5,1.4-1.4,1.4h-9c-1,0-1.4-0.5-1.4-1.4v-66.4c0-0.9,0.4-1.4,1.4-1.4h31.8c0.9,0,1.4,0.5,1.4,1.4V190.9z"/>
<path fill="#111111" d="M379.6,190.9c0,0.9-0.3,1.5-1.4,1.5h-21.6v17.3h16.5c0.9,0,1.4,0.5,1.4,1.5v8.6c0,1-0.5,1.5-1.4,1.5h-16.5
	v17.5h21.6c1,0,1.4,0.4,1.4,1.4v8.6c0,0.9-0.3,1.4-1.4,1.4h-31.8c-0.8,0-1.3-0.5-1.3-1.4v-66.4c0-0.9,0.5-1.4,1.3-1.4h31.8
	c1,0,1.4,0.5,1.4,1.4V190.9z"/>
<path fill="#111111" d="M407.8,180.9c8.1,0,12.4,4.3,12.4,12.4v9.2c0,0.9-0.4,1.4-1.4,1.4h-9c-0.9,0-1.4-0.5-1.4-1.4v-6.7
	c0-2.2-1.1-3.5-3.5-3.5h-4.1c-2.2,0-3.5,1.2-3.5,3.5v11.9l20.6,6.7c1.5,0.6,2.2,1.6,2.2,3.2v20c0,8.1-4.3,12.4-12.4,12.4h-9.7
	c-8,0-12.4-4.3-12.4-12.4v-9.1c0-0.9,0.5-1.4,1.4-1.4h9c1,0,1.4,0.4,1.4,1.4v6.7c0,2.3,1.3,3.5,3.5,3.5h4.1c2.2,0,3.5-1.1,3.5-3.5
	v-11.5l-20.5-6.7c-1.6-0.5-2.3-1.6-2.3-3.2v-20.4c0-8.1,4.4-12.4,12.4-12.4H407.8z"/>
<path fill="#111111" d="M451,180.9c8.1,0,12.4,4.3,12.4,12.4v9.2c0,0.9-0.4,1.4-1.4,1.4h-9c-0.9,0-1.4-0.5-1.4-1.4v-6.7
	c0-2.2-1.1-3.5-3.5-3.5h-4.1c-2.2,0-3.5,1.2-3.5,3.5v11.9l20.6,6.7c1.5,0.6,2.2,1.6,2.2,3.2v20c0,8.1-4.3,12.4-12.4,12.4h-9.7
	c-8,0-12.4-4.3-12.4-12.4v-9.1c0-0.9,0.5-1.4,1.4-1.4h9c1,0,1.4,0.4,1.4,1.4v6.7c0,2.3,1.3,3.5,3.5,3.5h4.1c2.2,0,3.5-1.1,3.5-3.5
	v-11.5l-20.5-6.7c-1.6-0.5-2.3-1.6-2.3-3.2v-20.4c0-8.1,4.4-12.4,12.4-12.4H451z"/>
<path fill="#111111" d="M482.4,180.9c0.9,0,1.4,0.5,1.4,1.4v66.4c0,0.9-0.5,1.4-1.4,1.4h-9c-1,0-1.4-0.5-1.4-1.4v-66.4
	c0-0.9,0.4-1.4,1.4-1.4H482.4z"/>
<path fill="#111111" d="M492.5,193.3c0-8.1,4.3-12.4,12.4-12.4h9.7c8.1,0,12.4,4.3,12.4,12.4v44.2c0,8.1-4.3,12.4-12.4,12.4h-9.7
	c-8.1,0-12.4-4.3-12.4-12.4V193.3z M512.4,238.9c2.2,0,3.5-1.1,3.5-3.5v-39.9c0-2.2-1.2-3.5-3.5-3.5h-5c-2.2,0-3.5,1.2-3.5,3.5v39.9
	c0,2.3,1.2,3.5,3.5,3.5H512.4z"/>
<path fill="#111111" d="M571.2,180.9c0.9,0,1.4,0.5,1.4,1.4v66.4c0,0.9-0.5,1.4-1.4,1.4h-8.6c-0.8,0-1.3-0.3-1.6-1.1L547.8,212h-0.4
	v36.6c0,0.9-0.4,1.4-1.4,1.4h-9c-0.9,0-1.4-0.5-1.4-1.4v-66.4c0-0.9,0.5-1.4,1.4-1.4h8.6c0.8,0,1.3,0.3,1.6,1.1l13.1,36.7h0.5v-36.5
	c0-0.9,0.4-1.4,1.4-1.4H571.2z"/>
<path fill="#111111" d="M613.7,250c-0.8,0-1.2-0.4-1.4-1.2l-2.4-12.6h-15.4l-2.3,12.6c-0.2,0.8-0.6,1.2-1.4,1.2h-9.2
	c-0.9,0-1.4-0.5-1.1-1.5l14.3-66.4c0.2-0.9,0.7-1.2,1.5-1.2h12c0.8,0,1.3,0.3,1.5,1.2l14.3,66.4c0.2,1-0.2,1.5-1.2,1.5H613.7z
	 M602.2,196l-5.5,30.2h11.1L602.2,196z"/>
<path fill="#111111" d="M643.6,238.6h20.6c1,0,1.4,0.5,1.4,1.4v8.6c0,0.9-0.4,1.4-1.4,1.4h-30.9c-0.9,0-1.4-0.4-1.4-1.4v-66.4
	c0-0.9,0.5-1.4,1.4-1.4h9c1,0,1.4,0.5,1.4,1.4V238.6z"/>
<path fill="#111111" d="M692,180.9c8.1,0,12.4,4.3,12.4,12.4v9.2c0,0.9-0.4,1.4-1.4,1.4h-9c-0.9,0-1.4-0.5-1.4-1.4v-6.7
	c0-2.2-1.1-3.5-3.5-3.5h-4.1c-2.2,0-3.5,1.2-3.5,3.5v11.9l20.6,6.7c1.5,0.6,2.2,1.6,2.2,3.2v20c0,8.1-4.3,12.4-12.4,12.4h-9.7
	c-8,0-12.4-4.3-12.4-12.4v-9.1c0-0.9,0.5-1.4,1.4-1.4h9c1,0,1.4,0.4,1.4,1.4v6.7c0,2.3,1.3,3.5,3.5,3.5h4.1c2.2,0,3.5-1.1,3.5-3.5
	v-11.5l-20.5-6.7c-1.6-0.5-2.3-1.6-2.3-3.2v-20.4c0-8.1,4.4-12.4,12.4-12.4H692z"/>
<path fill="#990000" d="M182.6,87.9c5.4,0,12.1,1.4,20.3,4.1v5.5v14.5h-6.1c-1.5,0-2.3-0.7-2.5-2.2c-0.1-0.2-0.4-3.6-0.9-10.1
	c-4.7-1.1-8.7-1.6-12-1.6h-0.2c-4.4,0.1-7.9,1.2-10.6,3.3c-2.7,2.1-4.1,4.5-4.1,7.1c0,2.6,0.6,4.6,1.8,5.9c2.1,2.4,5,4.2,8.8,5.3
	c3.8,1.2,7.1,2.2,9.6,3c2.5,0.8,5,1.8,7.4,2.8c2.4,1,4.5,2.3,6.5,3.8c4.2,3.5,6.3,8,6.3,13.7c0,7.5-2.5,13.4-7.6,17.8
	c-5.3,4.7-12.1,7.1-20.5,7.1c-8.4,0.1-16.8-1.3-25.1-4.2v-20.4h5.5c1.3,0,2.1,0.6,2.3,1.9c0.1,0.5,0.4,3.8,0.9,9.8
	c4.4,2.1,9.7,3.1,15.8,3.1c5.1,0,9.1-1.3,12-3.8c2.6-2.3,3.9-4.9,3.9-7.8c0-2.9-0.5-5.1-1.7-6.5c-1.2-1.4-2.7-2.6-4.6-3.6
	c-1.9-1-4.1-1.8-6.5-2.5c-6.8-2.1-11.5-3.8-14.3-5c-2.8-1.2-5.1-2.6-7-4.2c-4.2-3.5-6.3-8.3-6.3-14.4c0-6.3,2.4-11.5,7.2-15.8
	c5.1-4.5,12.5-6.8,21.9-6.8L182.6,87.9z"/>
<path fill="#990000" d="M276.6,155.9c-6.5,8-16.1,12-28.8,12c-10,0-18.1-3.5-24.4-10.5c-6.6-7.3-9.9-17.1-9.9-29.5
	c0-11.9,3.2-21.5,9.5-28.8c6.6-7.5,15.7-11.3,27.2-11.3c5.9,0,13.6,1.9,23.1,5.7v20.2H267c-1.5,0-2.3-0.7-2.5-2.2
	c-0.2-0.5-0.4-2.5-0.6-5.8c-0.2-3.3-0.4-5-0.4-5.1c-2.5-0.8-4.4-1.2-5.7-1.5c-3-0.5-5.8-0.7-8.6-0.6c-2.8,0.1-5.5,0.8-8.4,2.1
	c-2.8,1.3-5.2,3.2-7.2,5.8c-3.9,5.2-5.9,12.3-5.9,21.4c0,9.3,2.1,16.6,6.1,21.9c4,5.1,9.5,7.6,16.5,7.6c6.4,0,12.1-2.2,17.1-6.5
	c0.9-0.8,1.9-1.2,3-1.2c1.1,0,1.9,0.5,2.5,1.3L276.6,155.9L276.6,155.9z"/>
<path fill="#990000" d="M352.3,157.1c1.4,0.2,2.4,1.5,2.4,2.8v6.6h-9.9h-1.2h-4.9c-1.3,0-2.4-0.2-3.2-0.6c-0.8-0.4-1.4-1.2-1.6-2.5
	l-1.5-7.2c-2.1,1.8-4.1,3.5-6,5c-1.9,1.5-4,2.7-6.1,3.7c-2.2,1-4.5,1.8-6.9,2.3c-2.5,0.5-5.1,0.8-8.1,0.8c-3,0-5.8-0.5-8.5-1.3
	c-2.6-0.8-4.9-2.2-6.8-3.8c-1.9-1.7-3.5-3.8-4.6-6.5c-1.2-2.6-1.7-5.7-1.7-9.2c0-3.1,0.8-6.1,2.5-8.9c1.7-2.8,4.5-5.4,8.2-7.6
	c3.8-2.2,8.7-4.1,14.8-5.5c6.1-1.4,13.5-2.1,22.4-2.1v-6.1c0-6.1-1.3-10.7-3.9-13.8c-2.6-3.2-6.5-4.7-11.5-4.7
	c-3.3,0-6.1,0.5-8.4,1.3c-2.3,0.8-4.3,1.8-6,2.8c-1.7,1.1-3.2,2-4.4,2.8c-1.2,0.8-2.4,1.2-3.5,1.2c-0.9,0-1.8-0.2-2.5-0.7
	c-0.7-0.5-1.2-1.1-1.6-1.8l-2.5-4.4c4.3-4.2,8.9-7.2,13.9-9.3c5-2.1,10.5-3.1,16.6-3.1c4.4,0,8.2,0.7,11.6,2.2
	c3.4,1.5,6.2,3.5,8.5,6c2.3,2.5,4.1,5.6,5.2,9.2c1.2,3.6,1.8,7.6,1.8,12v38.8C347,156.1,352.3,157.1,352.3,157.1z M331.2,131.7
	c-6.3,0-11.7,0.4-16.1,1.2c-4.4,0.8-8,1.8-10.8,3.2c-2.8,1.3-4.8,2.8-6,4.6c-1.2,1.8-1.8,3.7-1.8,5.8c0,2.1,0.3,3.8,1,5.3
	c0.7,1.5,1.6,2.7,2.8,3.6c1.2,0.9,2.5,1.6,4,2.1c1.5,0.5,3.2,0.7,5,0.7c2.4,0,4.6-0.2,6.6-0.7c2-0.5,3.8-1.2,5.6-2.1
	c1.8-0.9,3.5-2,5.1-3.3c1.6-1.3,3.2-2.8,4.7-4.4L331.2,131.7z"/>
<path fill="#990000" d="M459.4,90.6c4.6,1.9,8.5,4.6,11.8,8.1c3.2,3.5,5.7,7.7,7.4,12.6c1.7,4.9,2.5,10.5,2.5,16.5
	c0,6.1-0.8,11.7-2.5,16.6c-1.7,4.9-4.1,9.1-7.4,12.6c-3.2,3.5-7.1,6.1-11.8,8c-4.6,1.8-9.8,2.8-15.4,2.8c-5.7,0-10.8-0.9-15.5-2.8
	c-4.6-1.8-8.5-4.5-11.8-8c-3.2-3.5-5.7-7.7-7.5-12.6c-1.8-4.9-2.6-10.5-2.6-16.6c0-6.1,0.8-11.6,2.6-16.5c1.8-4.9,4.2-9.1,7.5-12.6
	c3.2-3.5,7.1-6.1,11.8-8.1c4.6-1.9,9.8-2.8,15.5-2.8C449.6,87.7,454.8,88.7,459.4,90.6 M444,157.3c7.7,0,13.5-2.6,17.2-7.8
	c3.8-5.1,5.7-12.4,5.7-21.6c0-9.3-1.9-16.5-5.7-21.7c-3.8-5.2-9.5-7.8-17.2-7.8c-3.9,0-7.3,0.7-10.1,2c-2.8,1.3-5.2,3.2-7.1,5.8
	c-1.9,2.5-3.4,5.6-4.3,9.3c-0.9,3.7-1.4,7.8-1.4,12.5c0,4.6,0.5,8.8,1.4,12.4c0.9,3.6,2.4,6.7,4.3,9.1c1.9,2.5,4.3,4.4,7.1,5.7
	C436.7,156.5,440,157.2,444,157.3L444,157.3z"/>
<path fill="#990000" d="M540.6,90.6c4.6,1.9,8.5,4.6,11.8,8.1c3.2,3.5,5.7,7.7,7.4,12.6c1.7,4.9,2.5,10.5,2.5,16.5
	c0,6.1-0.8,11.7-2.5,16.6c-1.7,4.9-4.2,9.1-7.4,12.6c-3.2,3.5-7.1,6.1-11.8,8c-4.6,1.8-9.8,2.8-15.5,2.8c-5.7,0-10.8-0.9-15.5-2.8
	c-4.6-1.8-8.5-4.5-11.8-8c-3.2-3.5-5.7-7.7-7.5-12.6c-1.8-4.9-2.6-10.5-2.6-16.6c0-6.1,0.8-11.6,2.6-16.5c1.8-4.9,4.2-9.1,7.5-12.6
	c3.2-3.5,7.1-6.1,11.8-8.1c4.6-1.9,9.8-2.8,15.5-2.8C530.8,87.7,536,88.7,540.6,90.6 M525.1,157.3c7.7,0,13.5-2.6,17.2-7.8
	c3.8-5.1,5.7-12.4,5.7-21.6c0-9.3-1.9-16.5-5.7-21.7c-3.8-5.2-9.5-7.8-17.2-7.8c-3.9,0-7.3,0.7-10.1,2c-2.8,1.3-5.2,3.2-7.1,5.8
	c-1.9,2.5-3.4,5.6-4.3,9.3c-0.9,3.7-1.4,7.8-1.4,12.5c0,4.6,0.5,8.8,1.4,12.4c0.9,3.6,2.4,6.7,4.3,9.1c1.9,2.5,4.3,4.4,7.1,5.7
	C517.8,156.5,521.2,157.2,525.1,157.3L525.1,157.3z"/>
<path fill="#990000" d="M601.2,87.9c5.4,0,12.1,1.4,20.3,4.1v5.5v14.5h-6.1c-1.5,0-2.3-0.7-2.5-2.2c-0.1-0.2-0.4-3.6-0.9-10.1
	c-4.7-1.1-8.7-1.6-12-1.6h-0.2c-4.4,0.1-7.9,1.2-10.6,3.3c-2.7,2.1-4.1,4.5-4.1,7.1c0,2.6,0.6,4.6,1.8,5.9c2.1,2.4,5,4.2,8.8,5.3
	c3.8,1.2,7.1,2.2,9.6,3c2.5,0.8,5,1.8,7.4,2.8c2.4,1,4.5,2.3,6.5,3.8c4.2,3.5,6.3,8,6.3,13.7c0,7.5-2.5,13.4-7.6,17.8
	c-5.3,4.7-12.1,7.1-20.5,7.1c-8.4,0.1-16.8-1.3-25.1-4.2v-20.4h5.5c1.3,0,2.1,0.6,2.3,1.9c0.1,0.5,0.4,3.8,0.9,9.8
	c4.4,2.1,9.7,3.1,15.8,3.1c5.1,0,9.1-1.3,12-3.8c2.6-2.3,3.9-4.9,3.9-7.8c0-2.9-0.5-5.1-1.7-6.5c-1.2-1.4-2.7-2.6-4.6-3.6
	c-1.9-1-4.1-1.8-6.5-2.5c-6.8-2.1-11.5-3.8-14.3-5c-2.8-1.2-5.1-2.6-7-4.2c-4.2-3.5-6.3-8.3-6.3-14.4c0-6.3,2.4-11.5,7.2-15.8
	c5.2-4.5,12.5-6.8,21.9-6.8L601.2,87.9z"/>
<path fill="#990000" d="M701.3,157.1c1.4,0.2,2.4,1.5,2.4,2.8v6.6h-9.9h-1.2h-4.9c-1.3,0-2.4-0.2-3.2-0.6c-0.8-0.4-1.4-1.2-1.6-2.5
	l-1.5-7.2c-2.1,1.8-4.1,3.5-6,5c-1.9,1.5-4,2.7-6.1,3.7c-2.2,1-4.5,1.8-6.9,2.3c-2.5,0.5-5.2,0.8-8.1,0.8c-3,0-5.8-0.5-8.5-1.3
	c-2.6-0.8-4.9-2.2-6.8-3.8c-1.9-1.7-3.5-3.8-4.6-6.5c-1.2-2.6-1.7-5.7-1.7-9.2c0-3.1,0.8-6.1,2.5-8.9c1.7-2.8,4.5-5.4,8.2-7.6
	c3.8-2.2,8.7-4.1,14.8-5.5c6.1-1.4,13.5-2.1,22.4-2.1v-6.1c0-6.1-1.3-10.7-3.9-13.8c-2.6-3.2-6.5-4.7-11.5-4.7
	c-3.3,0-6.1,0.5-8.4,1.3c-2.3,0.8-4.3,1.8-6,2.8c-1.7,1.1-3.2,2-4.4,2.8c-1.2,0.8-2.4,1.2-3.5,1.2c-0.9,0-1.8-0.2-2.5-0.7
	c-0.7-0.5-1.2-1.1-1.6-1.8l-2.5-4.4c4.3-4.2,8.9-7.2,13.9-9.3c5-2.1,10.5-3.1,16.6-3.1c4.4,0,8.2,0.7,11.6,2.2
	c3.4,1.5,6.2,3.5,8.5,6c2.3,2.5,4.1,5.6,5.2,9.2c1.2,3.6,1.8,7.6,1.8,12v38.8C695.9,156.1,701.3,157.1,701.3,157.1z M680.1,131.7
	c-6.3,0-11.7,0.4-16.1,1.2c-4.4,0.8-8,1.8-10.8,3.2c-2.8,1.3-4.8,2.8-6,4.6c-1.2,1.8-1.8,3.7-1.8,5.8c0,2.1,0.3,3.8,1,5.3
	c0.7,1.5,1.6,2.7,2.8,3.6c1.2,0.9,2.5,1.6,4,2.1c1.5,0.5,3.2,0.7,5,0.7c2.4,0,4.6-0.2,6.6-0.7c2-0.5,3.8-1.2,5.6-2.1
	c1.8-0.9,3.5-2,5.1-3.3c1.6-1.3,3.2-2.8,4.7-4.4L680.1,131.7z"/>
<path opacity="0.3" fill="#111111" d="M671,71.5l-38.2-28.2c-0.2-0.2-0.5-0.3-0.9-0.3l-51.5-5.7l-89.9-8.9L391,9.6v3.6l18.2,3.6v7.6
	c0,0.4,0.3,0.7,0.7,0.7h0.3L391,53.4l0,5l22.6-33.4h2l0,46.4H391V75h289.2v-3.5H671z M423.5,25.1c0.4,0,0.7-0.3,0.7-0.7v-4.8l30,5.6
	v44.1l-30.8-44.2H423.5z M560,40.8l-30.2,29.4V35.8l30.2,3V40.8z M527.6,70.1l-31.4-32.8v-4.9l31.4,3.1V70.1z M484.4,31.5v6.3
	l-28.1,32.2V25.5l28.1,5.2C484.4,31,484.4,31.2,484.4,31.5z M487.3,38.7h2v32.8h-30.6L487.3,38.7z M491.4,38.7h2.3l31.4,32.8h-33.7
	V38.7z M562.5,42.3h1.6v29.2h-31.6L562.5,42.3z M566.2,42.3h1.7l30.7,29.2h-32.3V42.3z M603.4,43.3l24.9,2.8l-24.9,24.2V43.3z
	 M630.8,47.7v23.8h-24.5L630.8,47.7z M632.9,47.7l32.2,23.8h-32.2V47.7z M601.3,43.1v27.1l-30.8-29.3v-1.1l9.6,1L601.3,43.1z
	 M417.8,25.1h2.2l32.4,46.4h-34.5L417.8,25.1z"/>
<path fill="#990000" d="M17.2,162.8c-3.3-3.5-4.9-8.4-4.9-14.8V98.9H2.9c-0.8,0-1.5-0.2-2.1-0.7C0.3,97.7,0,97,0,96v-5.5l12.8-1.6
	l3.2-22.7c0.1-0.8,0.4-1.4,0.9-1.8c0.5-0.5,1.2-0.7,2.1-0.7h6.9v25.4h22.3V99H25.8v48.1c0,3.3,0.8,5.8,2.4,7.4
	c1.6,1.6,3.7,2.4,6.2,2.4c1.5,0,2.7-0.2,3.8-0.6c1.1-0.4,2-0.8,2.8-1.3c0.8-0.5,1.5-0.9,2-1.3c0.5-0.4,1-0.6,1.4-0.6
	c0.7,0,1.3,0.5,1.8,1.3l4,6.5c-2.4,2.2-5.2,3.9-8.5,5.2c-3.3,1.2-6.8,1.8-10.3,1.8C25.2,167.9,20.5,166.2,17.2,162.8z"/>
<g>
	<path opacity="0.3" fill="#111111" d="M372.4,71.5l-26.3,0l0-48.2h2l24.3,35.6V54l-20.9-30.7h0.3c0.4,0,0.7-0.3,0.7-0.7v-7.9
		l17.6-2.5c-1.1-0.3-1.7-0.5-2.2-0.7l-0.4-0.1c-1.3-0.4-2.2-1.1-2.7-2l-87.9,12.2L139.9,29c0,0-0.1,0-0.1,0l-68.6,9
		c-0.4,0-0.7,0.2-1,0.5l-33.6,33l-6.4,0V75l342.3,0V71.5z M70.3,71.5l-28.8,0l28.8-28.2V71.5z M72.4,71.5V42.8l28.9,28.7L72.4,71.5z
		 M104,70.2L74.7,41.1l29.3-3.9V70.2z M106.1,37l27.9-3.7v1.8c0,0.4,0.1,0.7,0.3,1l-28.2,33.7V37z M138.8,71.5l-30.4,0l29.3-34.9
		h1.2L138.8,71.5z M140.9,71.5l0-34.9h1.4l28.9,34.9L140.9,71.5z M173.3,69.7l-27.9-33.7c0.1-0.2,0.2-0.5,0.2-0.8v-2.9l27.7-1.5
		V69.7z M175.4,30.6l27.7-1.5v3.6c0,0,0,0,0,0l-27.7,36.7V30.6z M207.6,71.5l-30.2,0l28.7-38.1h1.5V71.5z M209.7,71.5V33.4h1.5
		l29.2,38.1L209.7,71.5z M242.3,69.5l-28.2-36.8v-4.1l28.2-1.5V69.5z M244.4,26.9l26.7-1.4v3.1c0,0.3,0.2,0.6,0.6,0.7l-27.2,39.8
		V26.9z M276.1,71.5l-29.8,0l28.8-42.2h1L276.1,71.5z M278.2,71.5l0-42.2h1l29.1,42.2L278.2,71.5z M282.6,29.3
		c0.3-0.1,0.5-0.3,0.5-0.6v-4.3l27.1-3.8l0,48.7L282.6,29.3z M312.3,20.3l25.2-3.5v5.8c0,0.4,0.3,0.7,0.7,0.7h0.9l-26.8,45.4
		L312.3,20.3z M344,71.5l-30,0l28.4-48.2h1.6L344,71.5z"/>
</g>
<g opacity="0.2">
	<g>
		<path fill="#111111" d="M351.5,23.3h0.3c0.4,0,0.7-0.3,0.7-0.7v-7.9l0,0v-3.5l-15,2.1v3.5v5.8c0,0.4,0.3,0.7,0.7,0.7h0.9l-28,47.4
			l-0.9-1.5l-27.6-40c0.3-0.1,0.5-0.3,0.5-0.6v-4.3v-3.6l-6.2,0.9l-5.8,0.3v3.5v3.1c0,0.3,0.2,0.6,0.6,0.7l-28.3,41.6l-1-1.4
			l-28.2-36.8v-3l0-4.7l-11.1,0.6v3.5v3.6c0,0,0,0,0,0l0,0v0.1H203l-28.8,38l-28.8-34.9c0.1-0.2,0.2-0.5,0.2-0.8v-2.3h0v-4.2
			l-5.7,0.3c0,0-0.1,0-0.1,0l-5.7,0.7v3.6v1.8c0,0.4,0.1,0.7,0.3,1l3.3,0.5h1.2h2.1h1.4l28.9,34.9l3,3.5l3.2-3.5l28.7-38.1h1.5h2.1
			h1.5l29.2,38.1l3.1,3.5l2.8-3.5l28.8-42.2h1h2.1h1l29.1,42.2l2.9,3.5l2.7-3.5l28.4-48.2h1.6h2.1h2l24.3,35.6V54L351.5,23.3z"/>
	</g>
	<g>
		<path opacity="0.3" fill="#111111" d="M351.5,23.3h0.3c0.4,0,0.7-0.3,0.7-0.7v-7.9l0,0v-3.5l-15,2.1v3.5v5.8
			c0,0.4,0.3,0.7,0.7,0.7h0.9l-28,47.4l-0.9-1.5l-27.6-40c0.3-0.1,0.5-0.3,0.5-0.6v-4.3v-3.6l-6.2,0.9l-5.8,0.3v3.5v3.1
			c0,0.3,0.2,0.6,0.6,0.7l-28.3,41.6l-1-1.4l-28.2-36.8v-3l0-4.7l-11.1,0.6v3.5v3.6c0,0,0,0,0,0l0,0v0.1H203l-28.8,38l-28.8-34.9
			c0.1-0.2,0.2-0.5,0.2-0.8v-2.3h0v-4.2l-5.7,0.3c0,0-0.1,0-0.1,0l-5.7,0.7v3.6v1.8c0,0.4,0.1,0.7,0.3,1l3.3,0.5h1.2h2.1h1.4
			l28.9,34.9l3,3.5l3.2-3.5l28.7-38.1h1.5h2.1h1.5l29.2,38.1l3.1,3.5l2.8-3.5l28.8-42.2h1h2.1h1l29.1,42.2l2.9,3.5l2.7-3.5
			l28.4-48.2h1.6h2.1h2l24.3,35.6V54L351.5,23.3z"/>
	</g>
</g>
<g opacity="0.2">
	<g>
		<path fill="#111111" d="M560,35.2v3.5v0.6v1.5l-30.2,29.4l-1,1l-32.4-33.9v-1.5v-3.4v-3.5l-5.7-0.6l-6.2-1.2v3.6c0,0,0,0.4,0,0.7
			v4.1v2.1l-29,33.2l-1.2-1.6l-30.8-44.2h0.2c0.4,0,0.7-0.3,0.7-0.7v-4.8h0v-3.7l-15-2.8v3.8v1.7v5.9c0,0.4,0.3,0.7,0.7,0.7h0.3
			L391,53.4l0,5l22.6-33.4h2h2.1h2.2l32.4,46.4l3.1,3.5l3.3-3.5l28.7-32.8h2h2.1h2.3l31.4,32.8l3.7,3.5l3.7-3.5l30-29.2h1.6h2.1h0.4
			h1.3l0.4,0h1.6c0.4,0,0.7-0.3,0.7-0.7v-2.8v-2.6L560,35.2z"/>
	</g>
	<g>
		<path opacity="0.3" fill="#111111" d="M560,35.2v3.5v0.6v1.5l-30.2,29.4l-1,1l-32.4-33.9v-1.5v-3.4v-3.5l-5.7-0.6l-6.2-1.2v3.6
			c0,0,0,0.4,0,0.7v4.1v2.1l-29,33.2l-1.2-1.6l-30.8-44.2h0.2c0.4,0,0.7-0.3,0.7-0.7v-4.8h0v-3.7l-15-2.8v3.8v1.7v5.9
			c0,0.4,0.3,0.7,0.7,0.7h0.3L391,53.4l0,5l22.6-33.4h2h2.1h2.2l32.4,46.4l3.1,3.5l3.3-3.5l28.7-32.8h2h2.1h2.3l31.4,32.8l3.7,3.5
			l3.7-3.5l30-29.2h1.6h2.1h0.4h1.3l0.4,0h1.6c0.4,0,0.7-0.3,0.7-0.7v-2.8v-2.6L560,35.2z"/>
	</g>
</g>
</svg>
